PathFileType	4	(X/Y/Z)	Patient4_TMGait_0pt2_03_right_15.trc.trc
DataRate	CameraRate	NumFrames	NumMarkers	Units	OrigDataRate	OrigDataStartFrame	OrigNumFrames
46.357615894040	46.357615894040	6	33	mm	46.357615894040	124	       141
Frame#	Time	Sacral			L.Shoulder			Chest			R.Shoulder			Neck			R.ASIS			L.ASIS			R.Thigh.Superior			R.Thigh.Lateral			R.Thigh.Inferior			R.Patella			L.Thigh.Superior			L.Thigh.Lateral			L.Thigh.Inferior			L.Patella			L.Shank.Superior			L.Shank.Lateral			L.Shank.Inferior			R.Shank.Superior			R.Shank.Lateral			R.Shank.Inferior			R.Heel			R.Midfoot.Superior			R.Midfoot.Lateral			R.Toe			L.Heel			L.Midfoot.Lateral			L.Midfoot.Superior			L.Toe			L.Elbow			L.Wrist			R.Elbow			R.Wrist			
		X1	Y1	Z1	X2	Y2	Z2	X3	Y3	Z3	X4	Y4	Z4	X5	Y5	Z5	X6	Y6	Z6	X7	Y7	Z7	X8	Y8	Z8	X9	Y9	Z9	X10	Y10	Z10	X11	Y11	Z11	X12	Y12	Z12	X13	Y13	Z13	X14	Y14	Z14	X15	Y15	Z15	X16	Y16	Z16	X17	Y17	Z17	X18	Y18	Z18	X19	Y19	Z19	X20	Y20	Z20	X21	Y21	Z21	X22	Y22	Z22	X23	Y23	Z23	X24	Y24	Z24	X25	Y25	Z25	X26	Y26	Z26	X27	Y27	Z27	X28	Y28	Z28	X29	Y29	Z29	X30	Y30	Z30	X31	Y31	Z31	X32	Y32	Z32	X33	Y33	Z33	

124	34.883285714286	831.752373289507	1012.689699079718	406.895076514435	1068.534020729211	1427.949177654323	275.350707465136	1108.030642019141	1367.409933239143	463.066522796940	976.016500369398	1451.585381055002	597.553051383216	992.084080756797	1497.344619011303	416.558322336080	1018.132494749420	945.951867847727	585.691621606789	1079.470818434327	963.480049801735	318.099496719144	1084.591449479067	751.742827981657	566.984242182851	1007.715705584698	636.581485600122	620.936251970048	1100.709759287361	588.970043569081	555.210175440256	1113.303962820752	503.459171169566	566.547066194719	1082.768238631494	736.400668124542	342.751937939000	971.555296857312	625.984778544974	263.077361616639	1037.069083199231	547.298420161128	338.728967933921	1025.146993083080	483.309642320462	346.580848584922	997.432003175684	416.204819560018	336.738162100217	909.256419010346	302.498485090149	282.467854771850	951.051559782017	191.863664335211	360.647095624923	1086.530901414286	413.827715897971	578.612393361376	1015.202191419739	313.382185595364	646.904698793955	1066.222720771281	214.914040753223	596.466934017732	941.790280013137	42.783216706420	581.513591217874	1113.120198937899	103.018462412423	610.587976600628	1029.228517573751	37.034039732245	651.114093264527	1234.329741897045	56.814075911087	631.008085393880	818.788921241240	38.662715586332	403.841035163207	893.426905330927	35.592244394761	323.383571574779	977.437167234199	95.584263205177	351.203491389220	1105.934049413945	41.808168626356	323.893727123405	1183.182322408158	1097.631943700344	163.875084332233	1438.093651812459	1097.817749860423	190.195058642907	798.907071182708	1147.072139872108	666.689706519666	766.255310223181	886.051475418539	660.886458095561	
125	34.904857142857	831.741864425112	1011.382141285239	411.554544844888	1066.104400912257	1426.807058855395	279.733974031796	1106.904183104466	1366.805180379794	467.379304217998	975.366907106371	1450.871264699620	602.504772872688	990.390557692497	1496.308536784425	421.140799913423	1019.388262640950	943.846288055968	588.785122834975	1079.114387450837	963.897774715231	321.085204900372	1086.610838158308	749.915133316961	567.804212246997	1010.210269416770	634.275523752477	621.714972387029	1102.932790098419	587.194508634775	555.289448808545	1114.665579990557	501.245437004341	566.034046394231	1081.050762059896	735.743956131162	344.124180574066	967.934064419321	626.700218401028	264.564819142113	1032.613643607482	547.028561693631	339.510155438416	1020.429635331218	483.268261763749	347.141323666044	992.446780088147	416.695340049747	337.323919070813	904.184866184102	303.050744182661	282.797094646047	946.488082428095	192.195600392743	360.619682725092	1087.367634898976	411.360340960252	578.204697592284	1015.555491267055	311.569424784437	646.750509922817	1064.548034998532	212.806699463454	595.313232662928	937.803883073375	42.780693321793	580.760269950893	1109.557300584406	101.291269919615	608.792621009197	1025.211461758833	36.893544117904	650.421782720449	1230.523637941411	54.207574044071	629.470278471278	814.469255446707	38.669058466636	403.818724257814	889.114654215949	35.569155505617	323.384761147494	973.125460682745	95.600429394204	351.117145867467	1101.611689777400	41.818160130106	323.870610837204	1179.253571798738	1095.239555029350	168.825060985848	1434.520109975140	1093.713444104468	193.736428122227	799.250002717711	1146.066027782851	673.127041317813	767.195795672422	884.935532689685	668.082757863533	
126	34.926428571429	831.669209227146	1010.408485706717	416.588053881686	1063.842741837854	1425.976150328580	284.328550165055	1106.062708985809	1366.378556797103	471.822943906555	975.173774756423	1450.375501331802	607.716712547289	988.956755480083	1495.515927485748	426.004412567569	1020.814475867811	942.163089636582	592.028135615597	1078.537480129287	964.361557385391	324.152834166112	1088.745252521023	748.483716679323	568.554769491818	1013.017708011111	632.460938121584	622.834911807446	1105.090377344165	585.749003224125	555.378401141834	1116.081389566140	499.279356822695	565.754096763095	1079.222315986435	735.215484089790	345.786217862003	964.424427146490	627.406255751319	266.408777872106	1028.465913676497	546.844326865321	340.667673987387	1016.100404166333	483.225149877026	348.073740936606	987.782220565937	417.133037041055	338.222895023392	899.292490769841	303.668597209020	283.386387608191	942.051477817700	192.486147871985	360.708975207989	1088.025752726004	409.202944064252	577.987003581092	1015.623867655257	310.129598706272	646.862161370519	1062.355144989208	210.994894500614	594.357714407990	933.098472515699	42.937416228536	580.109664773515	1105.229505428905	99.923166987926	607.355103140302	1020.434102119143	36.928721903819	649.926250429582	1226.006523496022	52.056342876340	628.389033955982	810.153675604963	38.662888701083	403.799006833973	884.810215717214	35.545489963354	323.401276275639	968.819962205194	95.621213392440	351.047849121754	1097.295257738333	41.830565217373	323.849097667737	1174.828241210610	1093.011312187353	173.745753896567	1430.528074819411	1088.893071511408	197.217375760745	799.691902275205	1145.625109268315	680.091817815695	767.910943799207	884.434537466944	676.026108521238	
127	34.948000000000	831.497621039369	1009.792643287835	422.004973045049	1061.775811669018	1425.465303962094	289.067251767580	1105.518264735987	1366.123620992046	476.320808572763	975.478582750899	1450.112487416395	613.112314491696	987.815026554105	1494.987753199723	431.074643193628	1022.320542488926	940.949748400198	595.465191106862	1077.694258109058	964.817870305911	327.339736890470	1090.733817294650	747.397992470111	569.456191797497	1015.764750335201	631.124238859861	624.409751963219	1106.854795121176	584.608300412564	555.653040757944	1117.224144162429	497.613661212931	565.807898524574	1077.280683461517	734.821391014379	347.809311403405	961.082996569236	628.080831162478	268.652259310431	1024.713587966711	546.730496882376	342.235198403938	1012.229211311798	483.159773826190	349.409788974253	983.526309354405	417.484051137841	339.459637188208	894.635404897793	304.346526171147	284.270747878060	937.769360021437	192.715319512428	360.932714184212	1088.306235282851	407.408240126358	578.047123673183	1015.348587863193	309.007661833386	647.306887066586	1059.763775484536	209.505018535647	593.682518584307	928.048450872307	43.143951109046	579.636007489401	1100.475162636097	98.912809201339	606.328374776784	1015.298863156229	37.047674238454	649.650468553413	1221.140987592544	50.424543818517	627.738577130853	805.838043306606	38.652387130929	403.784845291739	880.508456431230	35.526139468122	323.437292433762	964.518330382533	95.645392933356	351.002147122442	1092.980091722712	41.839370221580	323.830624147907	1169.933054648796	1090.991725599713	178.580487797902	1426.079709755531	1083.398032321034	200.654366461783	800.284744276400	1145.752466602709	687.485838789994	768.385179905711	884.557026848718	684.542548813704	
128	34.969571428571	831.201176222025	1009.518889426861	427.826804983251	1059.884773488965	1425.253397602533	293.888682579056	1105.256962545699	1366.016353031122	480.802764099930	976.295216738645	1450.067226438100	618.626247048333	986.969018654730	1494.717233889233	436.286316598105	1023.832862184834	940.199573666174	599.141468591351	1076.556779352660	965.220243562992	330.690766902649	1092.360854979426	746.571002729277	570.716155572593	1018.111014105142	630.202310430091	626.499783556143	1107.968096208317	583.721585315406	556.262942774947	1117.816765996520	496.256831491079	566.261229134962	1075.251398851954	734.560827644470	350.241005926662	957.960664357277	628.707688262894	271.320125093341	1021.428087184890	546.669156391205	344.218601741033	1008.877857811032	483.052721733041	351.150793767323	979.747729136425	417.722702165085	341.037098349732	890.257555981007	305.083719044944	285.467913539099	933.657753466911	192.873581017815	361.299348108520	1088.039849377606	405.983434372597	578.442232505019	1014.653077014851	308.131180000436	648.098317457140	1056.850534463708	208.330579595155	593.322592828171	922.918398676710	43.330633082652	579.361415356444	1095.543994411158	98.221229101891	605.701530000254	1010.088101052864	37.184162754052	649.576714330811	1216.180149592232	49.291810557416	627.450938487828	801.514107727217	38.656646605766	403.777434736330	876.200503980756	35.521044774525	323.494781190778	960.216677547641	95.674127095787	350.983257361701	1088.656824131463	41.837269954890	323.815919611688	1164.565647769314	1089.200432616254	183.281723222116	1421.076674046008	1077.207877968366	204.065922246355	801.107249470535	1146.383231284736	695.232080207346	768.674309354027	885.239190429547	693.477772880135	
129	34.991142857143	830.767726773750	1009.543164852272	434.079034860961	1058.112072545172	1425.298105933631	298.744514681097	1105.239971124906	1366.023728293017	485.213920307387	977.605009041576	1450.204076528812	624.208194928477	986.393318314144	1494.676432515851	441.589215744127	1025.300760523683	939.861417128016	603.096580918482	1075.116139187531	965.538057140235	334.252485193364	1093.484005293597	745.906955975308	572.495546151360	1019.803075716177	629.606389352182	629.117300063846	1108.273289827813	583.028099008289	557.317483016788	1117.669663518055	495.185000296934	567.150186071958	1073.176205092387	734.428368841973	353.102855488092	955.094177335577	629.279143054604	274.415628418755	1018.655889261610	546.644159265897	346.596911576591	1006.095372349389	482.888971846951	353.267083785954	976.489174936461	417.836149590488	342.935273993108	886.186079767145	305.886605649201	286.976532075458	929.719209462923	192.965673141497	361.806892896561	1087.115754741689	404.900705087993	579.201008637935	1013.472034242403	307.423751759277	649.212988818931	1053.661248393011	207.440143438904	593.275067486305	917.865300918583	43.461615121011	579.269890203772	1090.595799802871	97.786563744516	605.419856666290	1004.967723107214	37.296812355438	649.662179306556	1211.273232344738	48.579978626768	627.437774336159	797.170310529033	38.707936690159	403.775844956824	871.874337282743	35.546526694243	323.572984058043	955.910684851438	95.711954625117	350.990146914450	1084.311629610067	41.815967623217	323.804645594261	1158.686797277281	1087.634053429883	187.817798639055	1415.350901851800	1070.237435568118	207.469901803933	802.259439632288	1147.395200243220	703.276079967785	768.911286918453	886.354857642704	702.711953699314	
